<svg width="636" height="97" viewBox="0 0 636 97" fill="none" xmlns="http://www.w3.org/2000/svg">
<g clip-path="url(#clip0_213_1405)">
<path d="M42.86 1.01999H0V96.24H95.22V53.38V1.01999H42.86ZM9.51 86.74V10.53H42.86V53.39H85.72V86.75H9.51V86.74ZM85.72 10.53V43.88H52.36V10.53H85.72Z" fill="#222D86"/>
<path d="M142.92 76.7H128.36V6.04999H142.92V76.7Z" fill="#222D86"/>
<path d="M168.4 24.2L168.83 30.26C172.58 25.58 177.61 23.23 183.92 23.23C189.48 23.23 193.62 24.86 196.34 28.13C199.06 31.4 200.44 36.28 200.5 42.79V76.7H186.48V43.12C186.48 40.15 185.84 37.99 184.54 36.64C183.24 35.3 181.09 34.63 178.09 34.63C174.14 34.63 171.18 36.31 169.21 39.68V76.7H155.2V24.2H168.4Z" fill="#222D86"/>
<path d="M214.97 76.7V34.49H207.16V24.2H214.97V19.74C214.97 13.86 216.66 9.28999 220.04 6.02999C223.42 2.77999 228.15 1.14999 234.23 1.14999C236.17 1.14999 238.55 1.47999 241.37 2.11999L241.22 12.99C240.06 12.71 238.64 12.56 236.95 12.56C231.68 12.56 229.05 15.04 229.05 19.98V24.21H239.48V34.5H229.05V76.7H214.97Z" fill="#222D86"/>
<path d="M244.57 49.97C244.57 44.76 245.58 40.12 247.58 36.04C249.58 31.96 252.48 28.81 256.24 26.57C260.01 24.35 264.38 23.23 269.37 23.23C276.45 23.23 282.23 25.4 286.71 29.73C291.19 34.06 293.69 39.95 294.21 47.39L294.3 50.98C294.3 59.03 292.06 65.49 287.56 70.36C283.06 75.23 277.03 77.66 269.46 77.66C261.89 77.66 255.86 75.23 251.34 70.38C246.83 65.53 244.57 58.93 244.57 50.58V49.97ZM258.59 50.96C258.59 55.95 259.53 59.76 261.41 62.41C263.28 65.05 265.96 66.36 269.46 66.36C272.87 66.36 275.51 65.06 277.42 62.45C279.33 59.84 280.29 55.67 280.29 49.94C280.29 45.04 279.34 41.26 277.42 38.57C275.51 35.88 272.83 34.53 269.37 34.53C265.94 34.53 263.28 35.87 261.41 38.54C259.53 41.22 258.59 45.36 258.59 50.96Z" fill="#222D86"/>
<path d="M350.21 50.94C350.21 59.02 348.37 65.5 344.7 70.37C341.03 75.24 336.07 77.67 329.83 77.67C324.52 77.67 320.23 75.83 316.97 72.14V96.89H302.94V24.2H315.94L316.43 29.34C319.82 25.26 324.26 23.23 329.72 23.23C336.2 23.23 341.22 25.62 344.81 30.41C348.4 35.2 350.2 41.8 350.2 50.21V50.94H350.21ZM336.18 49.92C336.18 45.03 335.32 41.27 333.59 38.61C331.86 35.96 329.34 34.64 326.04 34.64C321.65 34.64 318.62 36.32 316.97 39.69V61.18C318.68 64.64 321.74 66.37 326.14 66.37C332.83 66.36 336.18 60.88 336.18 49.92Z" fill="#222D86"/>
<path d="M383.06 77.67C375.36 77.67 369.09 75.31 364.25 70.59C359.42 65.87 357 59.57 357 51.72V50.36C357 45.08 358.02 40.36 360.05 36.21C362.1 32.05 364.98 28.85 368.71 26.6C372.45 24.35 376.71 23.23 381.5 23.23C388.68 23.23 394.33 25.5 398.46 30.02C402.58 34.55 404.64 40.97 404.64 49.28V55.01H371.21C371.66 58.43 373.03 61.19 375.3 63.25C377.58 65.32 380.47 66.36 383.96 66.36C389.36 66.36 393.58 64.41 396.63 60.49L403.51 68.21C401.41 71.18 398.57 73.5 394.97 75.17C391.4 76.84 387.42 77.67 383.06 77.67ZM381.45 34.53C378.67 34.53 376.41 35.47 374.68 37.36C372.95 39.25 371.84 41.94 371.35 45.45H390.86V44.33C390.8 41.21 389.95 38.8 388.34 37.1C386.73 35.39 384.43 34.53 381.45 34.53Z" fill="#222D86"/>
<path d="M442.1 37.35C440.19 37.09 438.52 36.96 437.05 36.96C431.75 36.96 428.27 38.75 426.62 42.34V76.7H412.6V24.2H425.85L426.24 30.45C429.05 25.63 432.95 23.22 437.94 23.22C439.49 23.22 440.94 23.43 442.3 23.85L442.1 37.35Z" fill="#222D86"/>
<path d="M469.76 66.36C472.34 66.36 474.44 65.65 476.06 64.23C477.68 62.81 478.52 60.92 478.58 58.56H491.73C491.69 62.12 490.72 65.38 488.82 68.33C486.91 71.29 484.3 73.59 480.99 75.22C477.67 76.85 474.01 77.67 470 77.67C462.49 77.67 456.57 75.29 452.24 70.52C447.91 65.75 445.74 59.16 445.74 50.75V49.82C445.74 41.73 447.89 35.28 452.19 30.46C456.5 25.64 462.4 23.23 469.9 23.23C476.46 23.23 481.73 25.1 485.69 28.83C489.65 32.57 491.67 37.55 491.73 43.76H478.58C478.52 41.03 477.68 38.8 476.06 37.1C474.45 35.39 472.31 34.53 469.66 34.53C466.4 34.53 463.93 35.73 462.27 38.1C460.6 40.48 459.76 44.35 459.76 49.69V51.15C459.76 56.57 460.59 60.45 462.24 62.81C463.89 65.19 466.39 66.36 469.76 66.36Z" fill="#222D86"/>
<path d="M523.91 77.67C516.21 77.67 509.94 75.31 505.1 70.59C500.27 65.87 497.85 59.57 497.85 51.72V50.36C497.85 45.08 498.87 40.36 500.9 36.21C502.95 32.05 505.83 28.85 509.56 26.6C513.3 24.35 517.56 23.23 522.35 23.23C529.53 23.23 535.18 25.5 539.31 30.02C543.43 34.55 545.49 40.97 545.49 49.28V55.01H512.06C512.51 58.43 513.88 61.19 516.15 63.25C518.43 65.32 521.32 66.36 524.81 66.36C530.21 66.36 534.43 64.41 537.48 60.49L544.36 68.21C542.26 71.18 539.42 73.5 535.82 75.17C532.26 76.84 528.27 77.67 523.91 77.67ZM522.31 34.53C519.53 34.53 517.27 35.47 515.54 37.36C513.81 39.25 512.7 41.94 512.21 45.45H531.72V44.33C531.66 41.21 530.81 38.8 529.2 37.1C527.58 35.39 525.28 34.53 522.31 34.53Z" fill="#222D86"/>
<path d="M600.72 50.94C600.72 59.02 598.88 65.5 595.21 70.37C591.54 75.24 586.58 77.67 580.34 77.67C575.03 77.67 570.74 75.83 567.48 72.14V96.89H553.45V24.2H566.45L566.94 29.34C570.33 25.26 574.77 23.23 580.23 23.23C586.71 23.23 591.73 25.62 595.32 30.41C598.91 35.2 600.71 41.8 600.71 50.21V50.94H600.72ZM586.69 49.92C586.69 45.03 585.83 41.27 584.1 38.61C582.37 35.96 579.85 34.64 576.55 34.64C572.16 34.64 569.13 36.32 567.48 39.69V61.18C569.19 64.64 572.25 66.37 576.65 66.37C583.34 66.36 586.69 60.88 586.69 49.92Z" fill="#222D86"/>
<path d="M626.2 11.29V24.2H635.17V34.49H626.2V60.69C626.2 62.63 626.57 64.02 627.31 64.86C628.05 65.7 629.48 66.12 631.58 66.12C633.13 66.12 634.51 66.01 635.71 65.78V76.41C632.96 77.25 630.13 77.67 627.21 77.67C617.37 77.67 612.36 72.7 612.17 62.78V34.49H604.5V24.2H612.17V11.29H626.2Z" fill="#222D86"/>
</g>
<defs>
<clipPath id="clip0_213_1405">
<rect width="635.71" height="96.89" fill="white"/>
</clipPath>
</defs>
</svg>
